<mxfile host="app.diagrams.net" modified="2023-09-03T19:37:31.392Z" agent="Mozilla/5.0 (Windows NT 10.0; Win64; x64) AppleWebKit/537.36 (KHTML, like Gecko) Chrome/116.0.0.0 Safari/537.36" etag="iFapjcUi7u9MehXurEpl" version="21.7.2" type="device">
  <diagram name="Pagina-1" id="7xriFsP-sh0YTRD2iMAZ">
    <mxGraphModel dx="1434" dy="758" grid="1" gridSize="10" guides="1" tooltips="1" connect="1" arrows="1" fold="1" page="1" pageScale="1" pageWidth="827" pageHeight="1169" math="0" shadow="0">
      <root>
        <mxCell id="0" />
        <mxCell id="1" parent="0" />
        <mxCell id="iEFTlCHlAurrus_4V8Ls-5" value="" style="edgeStyle=orthogonalEdgeStyle;rounded=0;orthogonalLoop=1;jettySize=auto;html=1;" edge="1" parent="1" source="iEFTlCHlAurrus_4V8Ls-1">
          <mxGeometry relative="1" as="geometry">
            <mxPoint x="240" y="330" as="targetPoint" />
            <Array as="points">
              <mxPoint x="180" y="320" />
              <mxPoint x="180" y="331" />
            </Array>
          </mxGeometry>
        </mxCell>
        <mxCell id="iEFTlCHlAurrus_4V8Ls-1" value="&lt;font style=&quot;font-size: 20px;&quot;&gt;&lt;b&gt;User&lt;/b&gt;&lt;/font&gt;" style="whiteSpace=wrap;html=1;aspect=fixed;" vertex="1" parent="1">
          <mxGeometry x="10" y="280" width="110" height="110" as="geometry" />
        </mxCell>
        <mxCell id="iEFTlCHlAurrus_4V8Ls-19" style="edgeStyle=orthogonalEdgeStyle;rounded=0;orthogonalLoop=1;jettySize=auto;html=1;" edge="1" parent="1" source="iEFTlCHlAurrus_4V8Ls-11" target="iEFTlCHlAurrus_4V8Ls-18">
          <mxGeometry relative="1" as="geometry">
            <Array as="points">
              <mxPoint x="615" y="320" />
              <mxPoint x="615" y="318" />
            </Array>
          </mxGeometry>
        </mxCell>
        <mxCell id="iEFTlCHlAurrus_4V8Ls-11" value="&lt;font style=&quot;font-size: 14px;&quot;&gt;Tomcat&lt;/font&gt;" style="verticalAlign=top;align=left;spacingTop=8;spacingLeft=2;spacingRight=12;shape=cube;size=10;direction=south;fontStyle=4;html=1;whiteSpace=wrap;" vertex="1" parent="1">
          <mxGeometry x="240" y="180" width="320" height="430" as="geometry" />
        </mxCell>
        <mxCell id="iEFTlCHlAurrus_4V8Ls-14" value="&lt;br&gt;&lt;br&gt;&lt;br style=&quot;font-size: 16px;&quot;&gt;&lt;font style=&quot;font-size: 17px;&quot;&gt;&lt;b&gt;FRONTEND&lt;/b&gt;&lt;/font&gt;" style="verticalAlign=top;align=center;spacingTop=8;spacingLeft=2;spacingRight=12;shape=cube;size=10;direction=south;fontStyle=0;html=1;whiteSpace=wrap;" vertex="1" parent="1">
          <mxGeometry x="320" y="220" width="180" height="120" as="geometry" />
        </mxCell>
        <mxCell id="iEFTlCHlAurrus_4V8Ls-15" value="&lt;br style=&quot;font-size: 17px;&quot;&gt;&lt;br style=&quot;font-size: 17px;&quot;&gt;&lt;span style=&quot;font-size: 17px;&quot;&gt;BACKEND&lt;/span&gt;" style="verticalAlign=top;align=center;spacingTop=8;spacingLeft=2;spacingRight=12;shape=cube;size=10;direction=south;fontStyle=1;html=1;whiteSpace=wrap;fontSize=17;" vertex="1" parent="1">
          <mxGeometry x="320" y="430" width="180" height="120" as="geometry" />
        </mxCell>
        <mxCell id="iEFTlCHlAurrus_4V8Ls-16" value="" style="endArrow=classic;html=1;rounded=0;entryX=1.008;entryY=0.272;entryDx=0;entryDy=0;entryPerimeter=0;" edge="1" parent="1" target="iEFTlCHlAurrus_4V8Ls-14">
          <mxGeometry width="50" height="50" relative="1" as="geometry">
            <mxPoint x="450" y="430" as="sourcePoint" />
            <mxPoint x="500" y="380" as="targetPoint" />
          </mxGeometry>
        </mxCell>
        <mxCell id="iEFTlCHlAurrus_4V8Ls-17" value="" style="endArrow=classic;html=1;rounded=0;entryX=0.008;entryY=0.761;entryDx=0;entryDy=0;entryPerimeter=0;" edge="1" parent="1" target="iEFTlCHlAurrus_4V8Ls-15">
          <mxGeometry width="50" height="50" relative="1" as="geometry">
            <mxPoint x="364" y="340" as="sourcePoint" />
            <mxPoint x="414" y="290" as="targetPoint" />
          </mxGeometry>
        </mxCell>
        <mxCell id="iEFTlCHlAurrus_4V8Ls-18" value="" style="shape=cylinder3;whiteSpace=wrap;html=1;boundedLbl=1;backgroundOutline=1;size=15;" vertex="1" parent="1">
          <mxGeometry x="680" y="280" width="130" height="105" as="geometry" />
        </mxCell>
        <mxCell id="iEFTlCHlAurrus_4V8Ls-20" value="HTTP&lt;br&gt;REQUEST" style="text;html=1;strokeColor=none;fillColor=none;align=center;verticalAlign=middle;whiteSpace=wrap;rounded=0;" vertex="1" parent="1">
          <mxGeometry x="460" y="370" width="60" height="30" as="geometry" />
        </mxCell>
        <mxCell id="iEFTlCHlAurrus_4V8Ls-21" value="HTTP&lt;br&gt;REQUEST" style="text;html=1;strokeColor=none;fillColor=none;align=center;verticalAlign=middle;whiteSpace=wrap;rounded=0;" vertex="1" parent="1">
          <mxGeometry x="290" y="370" width="60" height="30" as="geometry" />
        </mxCell>
        <mxCell id="iEFTlCHlAurrus_4V8Ls-22" value="&lt;b style=&quot;font-size: 16px;&quot;&gt;MySQL&lt;br&gt;DATABASE&lt;/b&gt;" style="text;html=1;strokeColor=none;fillColor=none;align=center;verticalAlign=middle;whiteSpace=wrap;rounded=0;" vertex="1" parent="1">
          <mxGeometry x="710" y="330" width="60" height="30" as="geometry" />
        </mxCell>
      </root>
    </mxGraphModel>
  </diagram>
</mxfile>
